<?xml version="1.0" encoding="UTF-8" standalone="no"?> <svg xmlns:xlink="http://www.w3.org/1999/xlink" xmlns="http://www.w3.org/2000/svg" contentScriptType="application/ecmascript" contentStyleType="text/css" height="756px" preserveAspectRatio="none" style="width:1146px;height:756px;" viewBox="0 0 1146 756" width="1146px" zoomAndPan="magnify"> <defs> <filter height="300%" id="f1wg5zi6yq8mau" width="300%" x="-1" y="-1"> <feGaussianBlur result="blurOut" stdDeviation="2.0"></feGaussianBlur> <feColorMatrix in="blurOut" result="blurOut2" type="matrix" values="0 0 0 0 0 0 0 0 0 0 0 0 0 0 0 0 0 0 .4 0"></feColorMatrix> <feOffset dx="4.0" dy="4.0" in="blurOut2" result="blurOut3"></feOffset> <feBlend in="SourceGraphic" in2="blurOut3" mode="normal"></feBlend> </filter> </defs> <g> <polygon fill="#FFFFFF" filter="url(#f1wg5zi6yq8mau)" points="16,6,62,6,69,28.2969,1129,28.2969,1129,749,16,749,16,6" style="stroke:#000000;stroke-width:1.5;"></polygon> <line style="stroke:#000000;stroke-width:1.5;" x1="16" x2="69" y1="28.2969" y2="28.2969"></line> <text fill="#000000" font-family="sans-serif" font-size="14" font-weight="bold" lengthAdjust="spacing" textLength="40" x="20" y="20.9951">javax</text> <polygon fill="#FFFFFF" filter="url(#f1wg5zi6yq8mau)" points="24,425,207,425,214,447.2969,1121,447.2969,1121,741,24,741,24,425" style="stroke:#000000;stroke-width:1.5;"></polygon> <line style="stroke:#000000;stroke-width:1.5;" x1="24" x2="214" y1="447.2969" y2="447.2969"></line> <text fill="#000000" font-family="sans-serif" font-size="14" font-weight="bold" lengthAdjust="spacing" textLength="177" x="28" y="439.9951">annotation.processing</text> <polygon fill="#FFFFFF" filter="url(#f1wg5zi6yq8mau)" points="213,33,305,33,312,55.2969,865,55.2969,865,408,213,408,213,33" style="stroke:#000000;stroke-width:1.5;"></polygon> <line style="stroke:#000000;stroke-width:1.5;" x1="213" x2="312" y1="55.2969" y2="55.2969"></line> <text fill="#000000" font-family="sans-serif" font-size="14" font-weight="bold" lengthAdjust="spacing" textLength="86" x="217" y="47.9951">lang.model</text> <polygon fill="#FFFFFF" filter="url(#f1wg5zi6yq8mau)" points="299,235,369,235,376,257.2969,621,257.2969,621,400,299,400,299,235" style="stroke:#000000;stroke-width:1.5;"></polygon> <line style="stroke:#000000;stroke-width:1.5;" x1="299" x2="376" y1="257.2969" y2="257.2969"></line> <text fill="#000000" font-family="sans-serif" font-size="14" font-weight="bold" lengthAdjust="spacing" textLength="64" x="303" y="249.9951">element</text> <rect fill="#FEFECE" filter="url(#f1wg5zi6yq8mau)" height="32" id="SupportedAnnotationTypes" style="stroke:#A80036;stroke-width:1.5;" width="203" x="910.5" y="665"></rect> <ellipse cx="925.5" cy="681" fill="#E3664A" rx="11" ry="11" style="stroke:#A80036;stroke-width:1.0;"></ellipse> <path d="M927.5781,681.4688 Q927.5781,680.5313 927.1563,680 Q926.7344,679.4688 925.9844,679.4688 Q925.25,679.4688 924.8281,680 Q924.4219,680.5313 924.4219,681.4688 Q924.4219,682.4219 924.8281,682.9531 Q925.25,683.4844 925.9844,683.4844 Q926.7344,683.4844 927.1563,682.9531 Q927.5781,682.4219 927.5781,681.4688 Z M929.125,684.875 L927.5,684.875 L927.5,684.2031 Q927.1719,684.6406 926.75,684.8438 Q926.3281,685.0469 925.7188,685.0469 Q924.3594,685.0469 923.5313,684.0781 Q922.7031,683.0938 922.7031,681.4688 Q922.7031,679.875 923.5313,678.9063 Q924.3594,677.9219 925.7188,677.9219 Q926.3125,677.9219 926.7656,678.125 Q927.2188,678.3281 927.5,678.7188 L927.5,678.375 Q927.5,677.25 926.875,676.6406 Q926.25,676.0156 925.1094,676.0156 Q923.3906,676.0156 922.2969,677.5469 Q921.2031,679.0625 921.2031,681.5 Q921.2031,684.0469 922.4531,685.5469 Q923.7188,687.0469 925.8281,687.0469 Q926.4844,687.0469 927.1094,686.8594 Q927.7344,686.6719 928.3125,686.2813 L929.0781,687.7344 Q928.4063,688.1875 927.6094,688.4063 Q926.8125,688.6406 925.9063,688.6406 Q923,688.6406 921.2656,686.7031 Q919.5469,684.7813 919.5469,681.5 Q919.5469,678.2813 921.0938,676.3594 Q922.6563,674.4219 925.2188,674.4219 Q927.0156,674.4219 928.0625,675.5156 Q929.125,676.6094 929.125,678.4844 L929.125,684.875 Z " fill="#000000"></path> <text fill="#000000" font-family="sans-serif" font-size="12" lengthAdjust="spacing" textLength="171" x="939.5" y="685.1543">SupportedAnnotationTypes</text> <rect fill="#FEFECE" filter="url(#f1wg5zi6yq8mau)" height="32" id="SupportedSourceVersion" style="stroke:#A80036;stroke-width:1.5;" width="189" x="923.5" y="494.5"></rect> <ellipse cx="938.5" cy="510.5" fill="#E3664A" rx="11" ry="11" style="stroke:#A80036;stroke-width:1.0;"></ellipse> <path d="M940.5781,510.9688 Q940.5781,510.0313 940.1563,509.5 Q939.7344,508.9688 938.9844,508.9688 Q938.25,508.9688 937.8281,509.5 Q937.4219,510.0313 937.4219,510.9688 Q937.4219,511.9219 937.8281,512.4531 Q938.25,512.9844 938.9844,512.9844 Q939.7344,512.9844 940.1563,512.4531 Q940.5781,511.9219 940.5781,510.9688 Z M942.125,514.375 L940.5,514.375 L940.5,513.7031 Q940.1719,514.1406 939.75,514.3438 Q939.3281,514.5469 938.7188,514.5469 Q937.3594,514.5469 936.5313,513.5781 Q935.7031,512.5938 935.7031,510.9688 Q935.7031,509.375 936.5313,508.4063 Q937.3594,507.4219 938.7188,507.4219 Q939.3125,507.4219 939.7656,507.625 Q940.2188,507.8281 940.5,508.2188 L940.5,507.875 Q940.5,506.75 939.875,506.1406 Q939.25,505.5156 938.1094,505.5156 Q936.3906,505.5156 935.2969,507.0469 Q934.2031,508.5625 934.2031,511 Q934.2031,513.5469 935.4531,515.0469 Q936.7188,516.5469 938.8281,516.5469 Q939.4844,516.5469 940.1094,516.3594 Q940.7344,516.1719 941.3125,515.7813 L942.0781,517.2344 Q941.4063,517.6875 940.6094,517.9063 Q939.8125,518.1406 938.9063,518.1406 Q936,518.1406 934.2656,516.2031 Q932.5469,514.2813 932.5469,511 Q932.5469,507.7813 934.0938,505.8594 Q935.6563,503.9219 938.2188,503.9219 Q940.0156,503.9219 941.0625,505.0156 Q942.125,506.1094 942.125,507.9844 L942.125,514.375 Z " fill="#000000"></path> <text fill="#000000" font-family="sans-serif" font-size="12" lengthAdjust="spacing" textLength="157" x="952.5" y="514.6543">SupportedSourceVersion</text> <rect fill="#FEFECE" filter="url(#f1wg5zi6yq8mau)" height="116.8281" id="Processor" style="stroke:#A80036;stroke-width:1.5;" width="856" x="32" y="452"></rect> <ellipse cx="424.25" cy="468" fill="#B4A7E5" rx="11" ry="11" style="stroke:#A80036;stroke-width:1.0;"></ellipse> <path d="M420.1719,463.7656 L420.1719,461.6094 L427.5625,461.6094 L427.5625,463.7656 L425.0938,463.7656 L425.0938,471.8438 L427.5625,471.8438 L427.5625,474 L420.1719,474 L420.1719,471.8438 L422.6406,471.8438 L422.6406,463.7656 L420.1719,463.7656 Z " fill="#000000"></path> <text fill="#000000" font-family="sans-serif" font-size="12" font-style="italic" lengthAdjust="spacing" textLength="63" x="444.75" y="472.1543">Processor</text> <line style="stroke:#A80036;stroke-width:1.5;" x1="33" x2="887" y1="484" y2="484"></line> <ellipse cx="43" cy="495" fill="#84BE84" rx="3" ry="3" style="stroke:#038048;stroke-width:1.0;"></ellipse> <text fill="#000000" font-family="sans-serif" font-size="11" font-style="italic" lengthAdjust="spacing" textLength="830" x="52" y="498.2104">getCompletions(element: Element, annotation: AnnotationMirror, member: ExecutableElement, userText: String): Iterable&lt;? extends Completion&gt;</text> <ellipse cx="43" cy="507.8047" fill="#84BE84" rx="3" ry="3" style="stroke:#038048;stroke-width:1.0;"></ellipse> <text fill="#000000" font-family="sans-serif" font-size="11" font-style="italic" lengthAdjust="spacing" textLength="258" x="52" y="511.0151">getSupportedAnnotationTypes(): Set&lt;String&gt;</text> <ellipse cx="43" cy="520.6094" fill="#84BE84" rx="3" ry="3" style="stroke:#038048;stroke-width:1.0;"></ellipse> <text fill="#000000" font-family="sans-serif" font-size="11" font-style="italic" lengthAdjust="spacing" textLength="208" x="52" y="523.8198">getSupportedOptions(): Set&lt;String&gt;</text> <ellipse cx="43" cy="533.4141" fill="#84BE84" rx="3" ry="3" style="stroke:#038048;stroke-width:1.0;"></ellipse> <text fill="#000000" font-family="sans-serif" font-size="11" font-style="italic" lengthAdjust="spacing" textLength="259" x="52" y="536.6245">getSupportedSourceVersion(): SourceVersion</text> <ellipse cx="43" cy="546.2188" fill="#84BE84" rx="3" ry="3" style="stroke:#038048;stroke-width:1.0;"></ellipse> <text fill="#000000" font-family="sans-serif" font-size="11" font-style="italic" lengthAdjust="spacing" textLength="250" x="52" y="549.4292">init(processingEnv: ProcessingEnvironment)</text> <ellipse cx="43" cy="559.0234" fill="#84BE84" rx="3" ry="3" style="stroke:#038048;stroke-width:1.0;"></ellipse> <text fill="#000000" font-family="sans-serif" font-size="11" font-style="italic" lengthAdjust="spacing" textLength="473" x="52" y="562.2339">process(annotations: Set&lt;? extends TypeElement&gt;, roundEnv: RoundEnvironment)</text> <rect fill="#FEFECE" filter="url(#f1wg5zi6yq8mau)" height="32" id="AbstractProcessor" style="stroke:#A80036;stroke-width:1.5;" width="148" x="657" y="665"></rect> <ellipse cx="672" cy="681" fill="#A9DCDF" rx="11" ry="11" style="stroke:#A80036;stroke-width:1.0;"></ellipse> <path d="M672.1094,676.3438 L670.9531,681.4219 L673.2813,681.4219 L672.1094,676.3438 Z M670.625,674.1094 L673.6094,674.1094 L676.9688,686.5 L674.5156,686.5 L673.75,683.4375 L670.4688,683.4375 L669.7188,686.5 L667.2813,686.5 L670.625,674.1094 Z " fill="#000000"></path> <text fill="#000000" font-family="sans-serif" font-size="12" font-style="italic" lengthAdjust="spacing" textLength="116" x="686" y="685.1543">AbstractProcessor</text> <rect fill="#FEFECE" filter="url(#f1wg5zi6yq8mau)" height="104.0234" id="RoundEnvironment" style="stroke:#A80036;stroke-width:1.5;" width="519" x="102.5" y="629"></rect> <ellipse cx="298.75" cy="645" fill="#B4A7E5" rx="11" ry="11" style="stroke:#A80036;stroke-width:1.0;"></ellipse> <path d="M294.6719,640.7656 L294.6719,638.6094 L302.0625,638.6094 L302.0625,640.7656 L299.5938,640.7656 L299.5938,648.8438 L302.0625,648.8438 L302.0625,651 L294.6719,651 L294.6719,648.8438 L297.1406,648.8438 L297.1406,640.7656 L294.6719,640.7656 Z " fill="#000000"></path> <text fill="#000000" font-family="sans-serif" font-size="12" font-style="italic" lengthAdjust="spacing" textLength="118" x="319.25" y="649.1543">RoundEnvironment</text> <line style="stroke:#A80036;stroke-width:1.5;" x1="103.5" x2="620.5" y1="661" y2="661"></line> <ellipse cx="113.5" cy="672" fill="#84BE84" rx="3" ry="3" style="stroke:#038048;stroke-width:1.0;"></ellipse> <text fill="#000000" font-family="sans-serif" font-size="11" font-style="italic" lengthAdjust="spacing" textLength="128" x="122.5" y="675.2104">errorRaised(): boolean</text> <ellipse cx="113.5" cy="684.8047" fill="#84BE84" rx="3" ry="3" style="stroke:#038048;stroke-width:1.0;"></ellipse> <text fill="#000000" font-family="sans-serif" font-size="11" font-style="italic" lengthAdjust="spacing" textLength="493" x="122.5" y="688.0151">getElementsAnnotatedWith(a: Class&lt;? extends Annotation&gt;): Set&lt;? extends Element&gt;</text> <ellipse cx="113.5" cy="697.6094" fill="#84BE84" rx="3" ry="3" style="stroke:#038048;stroke-width:1.0;"></ellipse> <text fill="#000000" font-family="sans-serif" font-size="11" font-style="italic" lengthAdjust="spacing" textLength="397" x="122.5" y="700.8198">getElementsAnnotatedWith(a: TypeElement): Set&lt;? extends Element&gt;</text> <ellipse cx="113.5" cy="710.4141" fill="#84BE84" rx="3" ry="3" style="stroke:#038048;stroke-width:1.0;"></ellipse> <text fill="#000000" font-family="sans-serif" font-size="11" font-style="italic" lengthAdjust="spacing" textLength="254" x="122.5" y="713.6245">getRootElements(): Set&lt;? extends Element&gt;</text> <ellipse cx="113.5" cy="723.2188" fill="#84BE84" rx="3" ry="3" style="stroke:#038048;stroke-width:1.0;"></ellipse> <text fill="#000000" font-family="sans-serif" font-size="11" font-style="italic" lengthAdjust="spacing" textLength="151" x="122.5" y="726.4292">processingOver(): boolean</text> <rect fill="#FEFECE" filter="url(#f1wg5zi6yq8mau)" height="142.4375" id="SourceVersion" style="stroke:#A80036;stroke-width:1.5;" width="123" x="733.5" y="60"></rect> <ellipse cx="748.5" cy="76" fill="#EB937F" rx="11" ry="11" style="stroke:#A80036;stroke-width:1.0;"></ellipse> <path d="M752.6094,82 L744.8906,82 L744.8906,69.6094 L752.6094,69.6094 L752.6094,71.7656 L747.3438,71.7656 L747.3438,74.4375 L752.1094,74.4375 L752.1094,76.5938 L747.3438,76.5938 L747.3438,79.8438 L752.6094,79.8438 L752.6094,82 Z " fill="#000000"></path> <text fill="#000000" font-family="sans-serif" font-size="12" lengthAdjust="spacing" textLength="91" x="762.5" y="80.1543">SourceVersion</text> <line style="stroke:#A80036;stroke-width:1.5;" x1="734.5" x2="855.5" y1="92" y2="92"></line> <ellipse cx="744.5" cy="103" fill="none" rx="3" ry="3" style="stroke:#038048;stroke-width:1.0;"></ellipse> <text fill="#000000" font-family="sans-serif" font-size="11" lengthAdjust="spacing" text-decoration="underline" textLength="62" x="753.5" y="106.2104">RELEASE_1</text> <ellipse cx="744.5" cy="115.8047" fill="none" rx="3" ry="3" style="stroke:#038048;stroke-width:1.0;"></ellipse> <text fill="#000000" font-family="sans-serif" font-size="11" lengthAdjust="spacing" text-decoration="underline" textLength="62" x="753.5" y="119.0151">RELEASE_2</text> <ellipse cx="744.5" cy="128.6094" fill="none" rx="3" ry="3" style="stroke:#038048;stroke-width:1.0;"></ellipse> <text fill="#000000" font-family="sans-serif" font-size="11" lengthAdjust="spacing" text-decoration="underline" textLength="62" x="753.5" y="131.8198">RELEASE_3</text> <ellipse cx="744.5" cy="141.4141" fill="none" rx="3" ry="3" style="stroke:#038048;stroke-width:1.0;"></ellipse> <text fill="#000000" font-family="sans-serif" font-size="11" lengthAdjust="spacing" text-decoration="underline" textLength="62" x="753.5" y="144.6245">RELEASE_4</text> <ellipse cx="744.5" cy="154.2188" fill="none" rx="3" ry="3" style="stroke:#038048;stroke-width:1.0;"></ellipse> <text fill="#000000" font-family="sans-serif" font-size="11" lengthAdjust="spacing" text-decoration="underline" textLength="62" x="753.5" y="157.4292">RELEASE_5</text> <ellipse cx="744.5" cy="167.0234" fill="none" rx="3" ry="3" style="stroke:#038048;stroke-width:1.0;"></ellipse> <text fill="#000000" font-family="sans-serif" font-size="11" lengthAdjust="spacing" text-decoration="underline" textLength="62" x="753.5" y="170.2339">RELEASE_6</text> <ellipse cx="744.5" cy="179.8281" fill="none" rx="3" ry="3" style="stroke:#038048;stroke-width:1.0;"></ellipse> <text fill="#000000" font-family="sans-serif" font-size="11" lengthAdjust="spacing" text-decoration="underline" textLength="62" x="753.5" y="183.0386">RELEASE_7</text> <ellipse cx="744.5" cy="192.6328" fill="none" rx="3" ry="3" style="stroke:#038048;stroke-width:1.0;"></ellipse> <text fill="#000000" font-family="sans-serif" font-size="11" lengthAdjust="spacing" text-decoration="underline" textLength="62" x="753.5" y="195.8433">RELEASE_8</text> <rect fill="#FEFECE" filter="url(#f1wg5zi6yq8mau)" height="78.4141" id="AnnotatedConstruct" style="stroke:#A80036;stroke-width:1.5;" width="477" x="221.5" y="92"></rect> <ellipse cx="392.25" cy="108" fill="#B4A7E5" rx="11" ry="11" style="stroke:#A80036;stroke-width:1.0;"></ellipse> <path d="M388.1719,103.7656 L388.1719,101.6094 L395.5625,101.6094 L395.5625,103.7656 L393.0938,103.7656 L393.0938,111.8438 L395.5625,111.8438 L395.5625,114 L388.1719,114 L388.1719,111.8438 L390.6406,111.8438 L390.6406,103.7656 L388.1719,103.7656 Z " fill="#000000"></path> <text fill="#000000" font-family="sans-serif" font-size="12" font-style="italic" lengthAdjust="spacing" textLength="127" x="412.75" y="112.1543">AnnotatedConstruct</text> <line style="stroke:#A80036;stroke-width:1.5;" x1="222.5" x2="697.5" y1="124" y2="124"></line> <ellipse cx="232.5" cy="135" fill="#84BE84" rx="3" ry="3" style="stroke:#038048;stroke-width:1.0;"></ellipse> <text fill="#000000" font-family="sans-serif" font-size="11" font-style="italic" lengthAdjust="spacing" textLength="395" x="241.5" y="138.2104">&lt;A extends Annotation&gt; getAnnotation(annotationType: Class&lt;A&gt;): A</text> <ellipse cx="232.5" cy="147.8047" fill="#84BE84" rx="3" ry="3" style="stroke:#038048;stroke-width:1.0;"></ellipse> <text fill="#000000" font-family="sans-serif" font-size="11" font-style="italic" lengthAdjust="spacing" textLength="326" x="241.5" y="151.0151">getAnnotationMirrors(): List&lt;? extends AnnotationMirror&gt;</text> <ellipse cx="232.5" cy="160.6094" fill="#84BE84" rx="3" ry="3" style="stroke:#038048;stroke-width:1.0;"></ellipse> <text fill="#000000" font-family="sans-serif" font-size="11" font-style="italic" lengthAdjust="spacing" textLength="451" x="241.5" y="163.8198">&lt;A extends Annotation&gt; getAnnotationsByType(annotationType: Class&lt;A&gt;): A[]</text> <rect fill="#FEFECE" filter="url(#f1wg5zi6yq8mau)" height="129.6328" id="Element" style="stroke:#A80036;stroke-width:1.5;" width="307" x="306.5" y="262"></rect> <ellipse cx="430.25" cy="278" fill="#B4A7E5" rx="11" ry="11" style="stroke:#A80036;stroke-width:1.0;"></ellipse> <path d="M426.1719,273.7656 L426.1719,271.6094 L433.5625,271.6094 L433.5625,273.7656 L431.0938,273.7656 L431.0938,281.8438 L433.5625,281.8438 L433.5625,284 L426.1719,284 L426.1719,281.8438 L428.6406,281.8438 L428.6406,273.7656 L426.1719,273.7656 Z " fill="#000000"></path> <text fill="#000000" font-family="sans-serif" font-size="12" font-style="italic" lengthAdjust="spacing" textLength="51" x="450.75" y="282.1543">Element</text> <line style="stroke:#A80036;stroke-width:1.5;" x1="307.5" x2="612.5" y1="294" y2="294"></line> <ellipse cx="317.5" cy="305" fill="#84BE84" rx="3" ry="3" style="stroke:#038048;stroke-width:1.0;"></ellipse> <text fill="#000000" font-family="sans-serif" font-size="11" font-style="italic" lengthAdjust="spacing" textLength="270" x="326.5" y="308.2104">&lt;R, P&gt; accept(v: ElementVisitor&lt;R, P&gt;, p: P): R</text> <ellipse cx="317.5" cy="317.8047" fill="#84BE84" rx="3" ry="3" style="stroke:#038048;stroke-width:1.0;"></ellipse> <text fill="#000000" font-family="sans-serif" font-size="11" font-style="italic" lengthAdjust="spacing" textLength="118" x="326.5" y="321.0151">asType(): TypeMirror</text> <ellipse cx="317.5" cy="330.6094" fill="#84BE84" rx="3" ry="3" style="stroke:#038048;stroke-width:1.0;"></ellipse> <text fill="#000000" font-family="sans-serif" font-size="11" font-style="italic" lengthAdjust="spacing" textLength="281" x="326.5" y="333.8198">getEnclosedElements(): List&lt;? extends Element&gt;</text> <ellipse cx="317.5" cy="343.4141" fill="#84BE84" rx="3" ry="3" style="stroke:#038048;stroke-width:1.0;"></ellipse> <text fill="#000000" font-family="sans-serif" font-size="11" font-style="italic" lengthAdjust="spacing" textLength="180" x="326.5" y="346.6245">getEnclosingElement(): Element</text> <ellipse cx="317.5" cy="356.2188" fill="#84BE84" rx="3" ry="3" style="stroke:#038048;stroke-width:1.0;"></ellipse> <text fill="#000000" font-family="sans-serif" font-size="11" font-style="italic" lengthAdjust="spacing" textLength="128" x="326.5" y="359.4292">getKind(): ElementKind</text> <ellipse cx="317.5" cy="369.0234" fill="#84BE84" rx="3" ry="3" style="stroke:#038048;stroke-width:1.0;"></ellipse> <text fill="#000000" font-family="sans-serif" font-size="11" font-style="italic" lengthAdjust="spacing" textLength="168" x="326.5" y="372.2339">getModifiers(): Set&lt;Modifier&gt;</text> <ellipse cx="317.5" cy="381.8281" fill="#84BE84" rx="3" ry="3" style="stroke:#038048;stroke-width:1.0;"></ellipse> <text fill="#000000" font-family="sans-serif" font-size="11" font-style="italic" lengthAdjust="spacing" textLength="139" x="326.5" y="385.0386">getSimpleName(): Name</text> <path d="M762.0524,206.9076 C733.3329,266.7216 687.187,349.5035 629,408 C612.907,424.1785 593.7711,438.8683 574.2589,451.7511 " fill="none" id="SourceVersion-backto-Processor" style="stroke:#A80036;stroke-width:1.0;stroke-dasharray:7.0,7.0;"></path> <polygon fill="#A80036" points="764.2615,202.2803,756.7744,208.679,762.1074,206.7925,763.9939,212.1255,764.2615,202.2803" style="stroke:#A80036;stroke-width:1.0;"></polygon> <path d="M460,190.2049 C460,212.7466 460,238.5539 460,261.6348 " fill="none" id="AnnotatedConstruct-backto-Element" style="stroke:#A80036;stroke-width:1.0;"></path> <polygon fill="none" points="453.0001,190.1925,460,170.1925,467.0001,190.1924,453.0001,190.1925" style="stroke:#A80036;stroke-width:1.0;"></polygon> <path d="M460,397.2676 C460,415.3115 460,434.53 460,451.9132 " fill="none" id="Element-backto-Processor" style="stroke:#A80036;stroke-width:1.0;stroke-dasharray:7.0,7.0;"></path> <polygon fill="#A80036" points="460,392.2119,456,401.2119,460,397.2119,464,401.2119,460,392.2119" style="stroke:#A80036;stroke-width:1.0;"></polygon> <path d="M426.274,569.1764 C416.0146,587.0256 404.7627,606.6016 394.5804,624.3167 " fill="none" id="Processor-to-RoundEnvironment" style="stroke:#A80036;stroke-width:1.0;stroke-dasharray:7.0,7.0;"></path> <polygon fill="#A80036" points="392.016,628.7782,399.969,622.9688,394.5077,624.4433,393.0332,618.982,392.016,628.7782" style="stroke:#A80036;stroke-width:1.0;"></polygon> <path d="M570.2743,579.8792 C620.0519,611.1969 674.5377,645.4767 705.5659,664.9981 " fill="none" id="Processor-backto-AbstractProcessor" style="stroke:#A80036;stroke-width:1.0;stroke-dasharray:7.0,7.0;"></path> <polygon fill="none" points="566.4635,585.7519,553.2628,569.1764,573.9188,573.902,566.4635,585.7519" style="stroke:#A80036;stroke-width:1.0;"></polygon> <path d="M839.4779,206.6921 C893.208,298.1298 979.9533,445.7524 1008.5338,494.3904 " fill="none" id="SourceVersion-backto-SupportedSourceVersion" style="stroke:#A80036;stroke-width:1.0;"></path> <polygon fill="#A80036" points="836.9446,202.381,838.0556,212.167,839.4777,206.6918,844.9529,208.114,836.9446,202.381" style="stroke:#A80036;stroke-width:1.0;"></polygon> <text fill="#000000" font-family="sans-serif" font-size="13" lengthAdjust="spacing" textLength="7" x="833.9092" y="222.5668">*</text> </g> </svg> 