<?xml version="1.0" encoding="UTF-8" standalone="no"?> <svg xmlns:xlink="http://www.w3.org/1999/xlink" xmlns="http://www.w3.org/2000/svg" contentScriptType="application/ecmascript" contentStyleType="text/css" height="407px" preserveAspectRatio="none" style="width:930px;height:407px;" viewBox="0 0 930 407" width="930px" zoomAndPan="magnify"> <defs> <filter height="300%" id="frj9vpngd7r61" width="300%" x="-1" y="-1"> <feGaussianBlur result="blurOut" stdDeviation="2.0"></feGaussianBlur> <feColorMatrix in="blurOut" result="blurOut2" type="matrix" values="0 0 0 0 0 0 0 0 0 0 0 0 0 0 0 0 0 0 .4 0"></feColorMatrix> <feOffset dx="4.0" dy="4.0" in="blurOut2" result="blurOut3"></feOffset> <feBlend in="SourceGraphic" in2="blurOut3" mode="normal"></feBlend> </filter> </defs> <g> <polygon fill="#FFFFFF" filter="url(#frj9vpngd7r61)" points="16,6,91,6,98,28.2969,913,28.2969,913,400,16,400,16,6" style="stroke:#000000;stroke-width:1.5;"></polygon> <line style="stroke:#000000;stroke-width:1.5;" x1="16" x2="98" y1="28.2969" y2="28.2969"></line> <text fill="#000000" font-family="sans-serif" font-size="14" font-weight="bold" lengthAdjust="spacing" textLength="69" x="20" y="20.9951">java.lang</text> <polygon fill="#FFFFFF" filter="url(#frj9vpngd7r61)" points="357,33,415,33,422,55.2969,905,55.2969,905,198,357,198,357,33" style="stroke:#000000;stroke-width:1.5;"></polygon> <line style="stroke:#000000;stroke-width:1.5;" x1="357" x2="422" y1="55.2969" y2="55.2969"></line> <text fill="#000000" font-family="sans-serif" font-size="14" font-weight="bold" lengthAdjust="spacing" textLength="52" x="361" y="47.9951">reflect</text> <polygon fill="#FFFFFF" filter="url(#frj9vpngd7r61)" points="24,71.5,114,71.5,121,93.7969,338,93.7969,338,159.5,24,159.5,24,71.5" style="stroke:#000000;stroke-width:1.5;"></polygon> <line style="stroke:#000000;stroke-width:1.5;" x1="24" x2="121" y1="93.7969" y2="93.7969"></line> <text fill="#000000" font-family="sans-serif" font-size="14" font-weight="bold" lengthAdjust="spacing" textLength="84" x="28" y="86.4951">annotation</text> <rect fill="#FEFECE" filter="url(#frj9vpngd7r61)" height="142.4375" id="Class" style="stroke:#A80036;stroke-width:1.5;" width="482" x="390" y="250"></rect> <ellipse cx="604.75" cy="266" fill="#ADD1B2" rx="11" ry="11" style="stroke:#A80036;stroke-width:1.0;"></ellipse> <path d="M607.7188,271.6406 Q607.1406,271.9375 606.5,272.0781 Q605.8594,272.2344 605.1563,272.2344 Q602.6563,272.2344 601.3281,270.5938 Q600.0156,268.9375 600.0156,265.8125 Q600.0156,262.6875 601.3281,261.0313 Q602.6563,259.375 605.1563,259.375 Q605.8594,259.375 606.5,259.5313 Q607.1563,259.6875 607.7188,259.9844 L607.7188,262.7031 Q607.0938,262.125 606.5,261.8594 Q605.9063,261.5781 605.2813,261.5781 Q603.9375,261.5781 603.25,262.6563 Q602.5625,263.7188 602.5625,265.8125 Q602.5625,267.9063 603.25,268.9844 Q603.9375,270.0469 605.2813,270.0469 Q605.9063,270.0469 606.5,269.7813 Q607.0938,269.5 607.7188,268.9219 L607.7188,271.6406 Z " fill="#000000"></path> <text fill="#000000" font-family="sans-serif" font-size="12" lengthAdjust="spacing" textLength="33" x="625.25" y="270.1543">Class</text> <rect fill="#FFFFFF" height="15.9688" style="stroke:#000000;stroke-width:1.0;stroke-dasharray:2.0,2.0;" width="9" x="866" y="247"></rect> <text fill="#000000" font-family="sans-serif" font-size="12" font-style="italic" lengthAdjust="spacing" textLength="7" x="867" y="259.1387">T</text> <line style="stroke:#A80036;stroke-width:1.5;" x1="391" x2="871" y1="282" y2="282"></line> <ellipse cx="401" cy="293" fill="#84BE84" rx="3" ry="3" style="stroke:#038048;stroke-width:1.0;"></ellipse> <text fill="#000000" font-family="sans-serif" font-size="11" lengthAdjust="spacing" textLength="240" x="410" y="296.2104">getAnnotatedInterfaces(): AnnotatedType[]</text> <ellipse cx="401" cy="305.8047" fill="#84BE84" rx="3" ry="3" style="stroke:#038048;stroke-width:1.0;"></ellipse> <text fill="#000000" font-family="sans-serif" font-size="11" lengthAdjust="spacing" textLength="239" x="410" y="309.0151">getAnnotatedSuperclass(): AnnotatedType</text> <ellipse cx="401" cy="318.6094" fill="#84BE84" rx="3" ry="3" style="stroke:#038048;stroke-width:1.0;"></ellipse> <text fill="#000000" font-family="sans-serif" font-size="11" lengthAdjust="spacing" textLength="400" x="410" y="321.8198">&lt;T extends Annotation&gt; getAnnotation(annotationClass: Class&lt;T&gt;): T</text> <ellipse cx="401" cy="331.4141" fill="#84BE84" rx="3" ry="3" style="stroke:#038048;stroke-width:1.0;"></ellipse> <text fill="#000000" font-family="sans-serif" font-size="11" lengthAdjust="spacing" textLength="169" x="410" y="334.6245">getAnnotations(): Annotation[]</text> <ellipse cx="401" cy="344.2188" fill="#84BE84" rx="3" ry="3" style="stroke:#038048;stroke-width:1.0;"></ellipse> <text fill="#000000" font-family="sans-serif" font-size="11" lengthAdjust="spacing" textLength="456" x="410" y="347.4292">&lt;T extends Annotation&gt; getAnnotationsByType(annotationClass: Class&lt;T&gt;): T[]</text> <ellipse cx="401" cy="357.0234" fill="#84BE84" rx="3" ry="3" style="stroke:#038048;stroke-width:1.0;"></ellipse> <text fill="#000000" font-family="sans-serif" font-size="11" lengthAdjust="spacing" textLength="450" x="410" y="360.2339">&lt;T extends Annotation&gt; getDeclaredAnnotation(annotationClass: Class&lt;T&gt;): T</text> <ellipse cx="401" cy="369.8281" fill="#84BE84" rx="3" ry="3" style="stroke:#038048;stroke-width:1.0;"></ellipse> <text fill="#000000" font-family="sans-serif" font-size="11" lengthAdjust="spacing" textLength="219" x="410" y="373.0386">getDeclaredAnnotations(): Annotation[]</text> <ellipse cx="401" cy="382.6328" fill="#84BE84" rx="3" ry="3" style="stroke:#038048;stroke-width:1.0;"></ellipse> <text fill="#000000" font-family="sans-serif" font-size="11" lengthAdjust="spacing" textLength="364" x="410" y="385.8433">getDeclaredAnnotationsByType(annotationClass: Class&lt;T&gt;): T[]</text> <rect fill="#FEFECE" filter="url(#frj9vpngd7r61)" height="129.6328" id="AnnotatedElement" style="stroke:#A80036;stroke-width:1.5;" width="532" x="365" y="60"></rect> <ellipse cx="568.25" cy="76" fill="#B4A7E5" rx="11" ry="11" style="stroke:#A80036;stroke-width:1.0;"></ellipse> <path d="M564.1719,71.7656 L564.1719,69.6094 L571.5625,69.6094 L571.5625,71.7656 L569.0938,71.7656 L569.0938,79.8438 L571.5625,79.8438 L571.5625,82 L564.1719,82 L564.1719,79.8438 L566.6406,79.8438 L566.6406,71.7656 L564.1719,71.7656 Z " fill="#000000"></path> <text fill="#000000" font-family="sans-serif" font-size="12" font-style="italic" lengthAdjust="spacing" textLength="117" x="588.75" y="80.1543">AnnotatedElement</text> <line style="stroke:#A80036;stroke-width:1.5;" x1="366" x2="896" y1="92" y2="92"></line> <ellipse cx="376" cy="103" fill="#84BE84" rx="3" ry="3" style="stroke:#038048;stroke-width:1.0;"></ellipse> <text fill="#000000" font-family="sans-serif" font-size="11" font-style="italic" lengthAdjust="spacing" textLength="400" x="385" y="106.2104">&lt;T extends Annotation&gt; getAnnotation(annotationClass: Class&lt;T&gt;): T</text> <ellipse cx="376" cy="115.8047" fill="#84BE84" rx="3" ry="3" style="stroke:#038048;stroke-width:1.0;"></ellipse> <text fill="#000000" font-family="sans-serif" font-size="11" font-style="italic" lengthAdjust="spacing" textLength="169" x="385" y="119.0151">getAnnotations(): Annotation[]</text> <ellipse cx="376" cy="128.6094" fill="#84BE84" rx="3" ry="3" style="stroke:#038048;stroke-width:1.0;"></ellipse> <text fill="#000000" font-family="sans-serif" font-size="11" font-style="italic" lengthAdjust="spacing" textLength="219" x="385" y="131.8198">getDeclaredAnnotations(): Annotation[]</text> <ellipse cx="376" cy="141.4141" fill="#84BE84" rx="3" ry="3" style="stroke:#038048;stroke-width:1.0;"></ellipse> <text fill="#000000" font-family="sans-serif" font-size="11" lengthAdjust="spacing" textLength="456" x="385" y="144.6245">&lt;T extends Annotation&gt; getAnnotationsByType(annotationClass: Class&lt;T&gt;): T[]</text> <ellipse cx="376" cy="154.2188" fill="#84BE84" rx="3" ry="3" style="stroke:#038048;stroke-width:1.0;"></ellipse> <text fill="#000000" font-family="sans-serif" font-size="11" lengthAdjust="spacing" textLength="450" x="385" y="157.4292">&lt;T extends Annotation&gt; getDeclaredAnnotation(annotationClass: Class&lt;T&gt;): T</text> <ellipse cx="376" cy="167.0234" fill="#84BE84" rx="3" ry="3" style="stroke:#038048;stroke-width:1.0;"></ellipse> <text fill="#000000" font-family="sans-serif" font-size="11" lengthAdjust="spacing" textLength="506" x="385" y="170.2339">&lt;T extends Annotation&gt; getDeclaredAnnotationsByType(annotationClass: Class&lt;T&gt;): T[]</text> <ellipse cx="376" cy="179.8281" fill="#84BE84" rx="3" ry="3" style="stroke:#038048;stroke-width:1.0;"></ellipse> <text fill="#000000" font-family="sans-serif" font-size="11" lengthAdjust="spacing" textLength="444" x="385" y="183.0386">isAnnotationPresent(annotationClass: Class&lt;? extends Annotation&gt;): boolean</text> <rect fill="#FEFECE" filter="url(#frj9vpngd7r61)" height="52.8047" id="Annotation" style="stroke:#A80036;stroke-width:1.5;" width="298" x="32" y="98.5"></rect> <ellipse cx="142.25" cy="114.5" fill="#B4A7E5" rx="11" ry="11" style="stroke:#A80036;stroke-width:1.0;"></ellipse> <path d="M138.1719,110.2656 L138.1719,108.1094 L145.5625,108.1094 L145.5625,110.2656 L143.0938,110.2656 L143.0938,118.3438 L145.5625,118.3438 L145.5625,120.5 L138.1719,120.5 L138.1719,118.3438 L140.6406,118.3438 L140.6406,110.2656 L138.1719,110.2656 Z " fill="#000000"></path> <text fill="#000000" font-family="sans-serif" font-size="12" font-style="italic" lengthAdjust="spacing" textLength="69" x="162.75" y="118.6543">Annotation</text> <line style="stroke:#A80036;stroke-width:1.5;" x1="33" x2="329" y1="130.5" y2="130.5"></line> <ellipse cx="43" cy="141.5" fill="#84BE84" rx="3" ry="3" style="stroke:#038048;stroke-width:1.0;"></ellipse> <text fill="#000000" font-family="sans-serif" font-size="11" lengthAdjust="spacing" textLength="272" x="52" y="144.7104">annotationType(): Class&lt;? extends Annotation&gt;</text> <path d="M631,210.5466 C631,223.701 631,237.1597 631,249.9537 " fill="none" id="AnnotatedElement-backto-Class" style="stroke:#A80036;stroke-width:1.0;stroke-dasharray:7.0,7.0;"></path> <polygon fill="none" points="624.0001,210.2652,631,190.2652,638.0001,210.2651,624.0001,210.2652" style="stroke:#A80036;stroke-width:1.0;"></polygon> <path d="M364.7584,125 C355.0096,125 345.2608,125 335.512,125 " fill="none" id="AnnotatedElement-to-Annotation" style="stroke:#A80036;stroke-width:1.0;stroke-dasharray:7.0,7.0;"></path> <polygon fill="#A80036" points="330.4141,125,339.4141,129,335.4141,125,339.4141,121,330.4141,125" style="stroke:#A80036;stroke-width:1.0;"></polygon> </g> </svg> 